<?xml version="1.0" standalone="no"?>
<!DOCTYPE svg PUBLIC "-//W3C//DTD SVG 20010904//EN"
 "http://www.w3.org/TR/2001/REC-SVG-20010904/DTD/svg10.dtd">
<svg version="1.0" xmlns="http://www.w3.org/2000/svg"
 width="101.000000pt" height="141.000000pt" viewBox="0 0 101.000000 141.000000"
 preserveAspectRatio="xMidYMid meet">

<g transform="translate(0.000000,141.000000) scale(0.100000,-0.100000)"
fill="#000000" stroke="none">
<path d="M0 705 l0 -705 505 0 505 0 0 705 0 705 -505 0 -505 0 0 -705z m450
323 c25 -158 47 -289 50 -292 3 -3 25 120 49 272 24 152 46 285 49 294 4 16
20 18 148 18 l144 0 0 -610 0 -610 -115 0 -115 0 -1 278 -1 277 -48 -275 c-27
-151 -49 -276 -49 -277 -1 -2 -28 -3 -61 -3 -59 0 -59 0 -65 32 -3 18 -23 134
-44 258 l-39 225 -1 -257 -1 -258 -115 0 -115 0 0 610 0 611 142 -3 143 -3 45
-287z"/>
</g>
</svg>
